<svg xmlns="http://www.w3.org/2000/svg" viewBox="0 0 724.84 186.31"><defs><style>.cls-1{font-size:100px;font-family:DrSugiyama-Regular, Dr Sugiyama;}</style></defs><g id="Layer_2" data-name="Layer 2"><g id="Layer_1-2" data-name="Layer 1"><g id="Layer_2-2" data-name="Layer 2"><g id="Layer_1-2-2" data-name="Layer 1-2"><path d="M140.43,25.19c-2.17-1.22-4.32-2.48-6.51-3.66A60.43,60.43,0,0,0,122,16.48c1.51.63,3,1.22,4.54,1.88a75,75,0,0,1,15.06,9.42c2.39,1.85,4.6,3.93,6.88,5.93a1.13,1.13,0,0,1,.16.33h0c-1.51-1.17-3-2.33-4.53-3.5a79.59,79.59,0,0,0-20.43-11.6A82.43,82.43,0,0,0,102,13.84a4.47,4.47,0,0,0-.73,0l-1-.05-.37-.12v.16l.38-.06,1,0c2.5.4,5,.74,7.51,1.22a76.16,76.16,0,0,1,20.74,7,77.47,77.47,0,0,1,20.79,15.13A81.75,81.75,0,0,1,161.18,51a6.66,6.66,0,0,0,.52.7l-.31.22c-.3-.39-.61-.77-.9-1.16-1.83-2.37-3.6-4.78-5.43-7.14a12.55,12.55,0,0,0-1.33-1.3l-.16-.12.18.11,0,.57h0c-1.42-1.39-2.82-2.81-4.24-4.2-.44-.43-.93-.81-1.4-1.21l-.41-.39-.41-.38-.41-.39-.4-.38-.41-.39-1-.86-.45-.38-.4-.39-.07-.11.09.09.39.4.46.38,1,.84.41.39.4.39.41.38.4.4.4.38c.85.95,1.69,1.92,2.56,2.85,8,8.56,13.32,18.67,16.93,29.75a6,6,0,0,1,.12.61l-.46.38.4.44,0,.18-.22.29.52.45h0l.22.61h0c-.29.23.15,1.21-.79.75h0c-.58-1.64-1.06-3.32-1.75-4.9-1.88-4.34-3.54-8.82-5.83-12.93a74.2,74.2,0,0,0-29.63-29.28,72.8,72.8,0,0,0-11.3-5,64.69,64.69,0,0,0-9.86-2.1c1.72.45,3.44.89,5.16,1.35,6.44,1.74,12.3,4.8,18,8.16a2.4,2.4,0,0,1,.41.43l-.53-.09v.19l.51-.12.9.56L133,30v.2l.51-.14,1.53,1h-.57l.05.2.51-.22c-.08.24-.15.48-.25.71h0l-.42.43h0L132,30.69h0l.36-.09-.28-.17h0l-1-.32h0L126,27.5a64.9,64.9,0,0,0-12.22-4.65,70.8,70.8,0,0,0-33-1.76A72.52,72.52,0,0,0,44.67,38.94,69.84,69.84,0,0,0,26.53,64.8a72.29,72.29,0,0,0-2.92,47.37,77.38,77.38,0,0,0,12.57,26.07c2,2.71,3.93,5.47,6,8.09A46,46,0,0,0,45.9,150c.29.33.56.68.82,1h0L40,145.38c-.38-.31-.75-.66-1.12-1l-.45-.36-.55-.78-.16.16.73.61.34.42a48.23,48.23,0,0,0,9.92,9.22,77.69,77.69,0,0,0,25.49,12.63,102.92,102.92,0,0,0,13.84,2.61,114.73,114.73,0,0,0,12.69.55,47.86,47.86,0,0,0,10.72-1.37c.35-.07.71-.09,1.07-.15l.07.27c-.52.16-1,.35-1.54.47a74.6,74.6,0,0,1-14.18,2.12,10.13,10.13,0,0,0-1.08.18L95,171l-.78,0-.11,0-.06.06.16-.06.79,0h.78c2,0,4.08.12,6.1-.1,4.53-.5,9.13-.72,13.54-2.09,2.06-.65,4.11-1.34,6.18-2,.45-.15.93-.25,1.68-.46-2.81,2-15.1,5.78-25.55,6.35a81.07,81.07,0,0,1-26.08-2.73,61.91,61.91,0,0,0,14.75,2.92,81.19,81.19,0,0,0,64.3-23.1,12.72,12.72,0,0,1,1.16-.89h0a41.87,41.87,0,0,1-8.56,8.36c-.32.25-.61.54-.92.82l.27.28h0L139.43,161c-.36.29-.74.54-1.18.86,2.12-.52,12.14-8.62,16.15-13a94.92,94.92,0,0,0,12.32-16.76l-.42,1.05.13.09,2-3.06h0l-.18,1.53h0c-.45.81-.89,1.64-1.34,2.47h0c-.19.29-.37.59-.56.89l0-.09v.09l-1.17,2,.18-.56-.15,0,0,.48-1.09,1.54h0c-1.5,2.19-2.86,4.5-4.53,6.56a83.34,83.34,0,0,1-25.57,21.63q-.44.24-.87.51s0,.13-.15.48c2.1-1,4.07-1.78,5.93-2.79a47.62,47.62,0,0,0,4.17-2.75c1.15-.78,2.29-1.59,3.45-2.36a1.58,1.58,0,0,1,1-.28,75.93,75.93,0,0,1-20.78,13.37l.16.34a6.38,6.38,0,0,0,1-.29c2-.94,4.11-1.84,6.12-2.86,3.37-1.68,6.83-3.25,10-5.22a81.4,81.4,0,0,0,8.65-6.35c2-1.68,3.84-3.68,5.78-5.51a7.6,7.6,0,0,1,2-1.31,36.07,36.07,0,0,1-2.89,4.15,83.25,83.25,0,0,1-15.89,13.24,6.94,6.94,0,0,0-1.58,1.27,8.34,8.34,0,0,0,.8-.38c4.44-2.78,8.69-5.83,12.85-9a76.9,76.9,0,0,0,14.41-15.31,19.86,19.86,0,0,1,1.6-1.71h0c-1.21,1.88-2.29,3.87-3.65,5.63A91.35,91.35,0,0,1,125.51,180a104.21,104.21,0,0,1-22.26,5.46,79.15,79.15,0,0,1-17.87.64,90.58,90.58,0,0,1-26.87-6.43,91.54,91.54,0,0,1-39.25-29.89,93.36,93.36,0,0,1-11.06-95A93,93,0,0,1,49.56,10.26,89.34,89.34,0,0,1,83.16,0a3.68,3.68,0,0,1,.74,0l0,0c-1.76.41-3.52.81-5.27,1.27-.83.22-1.63.51-2.44.77l-.55.1-.56.08-.19.09.19-.11.55-.08.55-.1c4.09-.39,8.18-.94,12.29-1.15a94.07,94.07,0,0,1,23.44,1.71,91.21,91.21,0,0,1,56.92,36.78,93.55,93.55,0,0,1,10.24,18.7c.3.73.49,1.49.73,2.23l-.12.06c-1.33-2.59-2.64-5.19-4-7.77-1-2-2.13-4-3.23-5.92a18.54,18.54,0,0,0-1.18-1.65c.07.49.09.72.11.93l-.13.1L168.37,42l-.17.08a2.67,2.67,0,0,0,.2.46c1.65,2.75,3.53,5.37,4.92,8.25,3.32,6.78,6.33,13.71,7.85,21.14.83,4.06,1.18,8.23,1.74,12.35l-.18.09a.25.25,0,0,1-.16-.1c0-.2,0-.4,0-.6a2.33,2.33,0,0,0-.11-.55l-.1-.55-.12-.28-.15.13.29.15.11.54.1.54,0,.61,0,.79h0l.09.58v0l0,.82h0l-.12.82.24.55v0l-.14.84-.38.84h0l-.51-.16h0V89l-.25.2h0l0-.77h0l.17-.55h0l-.26-.86a2.09,2.09,0,0,0,.2-.22l-.19.24c0-.27,0-.54,0-.81h0l.16-.5v0l-.12-1.37h0c0-.45-.07-.91-.11-1.37v0l-.09-.58h0l-.1-.58h0l-.27-.08h0c-.56-2.89-1-5.81-1.71-8.68a61.46,61.46,0,0,0-4.82-14.42,109,109,0,0,0-10.49-17.28,12.76,12.76,0,0,0-1-1.05l-.13-.13.15.11,3,4.71c4.93,7.71,9.15,15.8,11.11,24.74,2.18,10,3.58,20.07,2.42,30.33a4.21,4.21,0,0,1-.52,1.7c0-.78.1-1.55.12-2.32.06-3.28.13-6.57.2-9.85a5.58,5.58,0,0,0-.19-1.07c0-.27,0-.53,0-.79l0-.6,0-.09v.08c0,.2,0,.4.05.61s0,.52,0,.78c-.08,1.37-.15,2.74-.23,4.11h0l-.28,0,0-.83,0-.78c0-.27,0-.53,0-.79l0-.79-.16-2.11,0-1.23v-.8c0-.19,0-.38-.07-.57-.05-.44-.09-.88-.13-1.32l-.06-.58-.11-.54-.21-1.87-.06-.59-.09-.55-.13-.51,0-.6-.09-.55-.07-.56c-.12-.26-.24-.55-.36-.79l0-.61,0-.09,0,.09,0,.6.35.79.08.56.09.56c0,.19,0,.39,0,.59l.13.51.09.55.06.59.21,1.87.11.54.06.58c0,.44.08.88.13,1.32,0,.19,0,.38.07.57v.8c0,.45.08.9.11,1.34l.17,2.1v.79l0,.79,0,.79c0,.27,0,.55,0,.82l0,1.83v0c0,.62,0,1.24,0,1.85l0,0c-.32,2.88-.6,5.76-1,8.63-.18,1.31-.52,2.6-.79,3.89h0c.25-2,.53-3.93.74-5.9.11-1,.1-2,.15-3h0c.05-.78.11-1.56.15-2.33h0c0-.35,0-.7.05-1h0l0-1.83h0L178,93h0l-.19-1.09.16,0,0-.09-.13.15q0-.42,0-.81l.11,0,0-.09-.13.14,0-.8.12,0,0-.09-.13.14c0-.26,0-.53,0-.8l.09-.07-.07.08-.26-.11v0c0-.42.08-.84.13-1.26a.14.14,0,0,1,.07-.08l-.06.1-.26-.13v0l.23-.74.15-.48-.22-.07-.26-.1v0l.23-.73.15-.49-.4-.39h0l.15-.5.15-.47-.08-.53v0l-.1-.59,0,0-.43-.41v0l.16-.51.15-.47-.1-.55-.09-.55c0-.19,0-.38-.09-.57l0,0-.11-.59,0,0-.11-.59v0l-.09-.59v0l-.11-.57-.09-.55-.09-.55-.08-.47-.29-.09a.72.72,0,0,1-.2-.09l-.23-.42v-.48l.13-.43h0l.15-.39-.3-.09a2.84,2.84,0,0,0-.08.42l0,0,.14.52c0,.15-.05.3-.08.45l-.19.1c-.51-1.93-.95-3.88-1.53-5.79A86.56,86.56,0,0,0,154.46,36,81.59,81.59,0,0,0,129,17.56a1.9,1.9,0,0,0-1-.2c1.61.95,3.22,1.88,4.83,2.84,2.27,1.37,4.53,2.75,6.79,4.16a5.07,5.07,0,0,1,.8.87ZM181.9,79.06l0,.61.15.5a3,3,0,0,1,.1.54l.1.55h0c0-.18-.06-.37-.1-.55l-.1-.54-.15-.5,0-.62-.1-.54-.09-.56,0-.08,0,.07.09.55Zm-6.51-6.19v-.09l.08.11-.08,0-.08,0ZM143.2,33.11l.06.06-.08-.07,0-.08Zm17.64-.32.09.12-.11-.1,0-.11A.22.22,0,0,0,160.84,32.79ZM131.57,165.61l3.6-1.71,0,.06c-1.44.64-2.86,1.29-3.65,1.65Zm6-3-.12-.23-1,.68.1.16ZM66,168.18l0-.07-.87-.27,0,.07ZM126.24,16.39l0,.08.64.2,0-.09ZM107.39,19.2v.05l.39.12v0Zm58.08,19.14a.14.14,0,0,0,0,.11.16.16,0,0,0,.12,0s0-.08-.05-.11-.06,0-.09,0Zm1.28,1.73.12.19s.06-.07,0-.09a1.74,1.74,0,0,0-.11-.18l-.06.08Zm-33.06-9.29.13-.16a.6.6,0,0,0-.19-.06s-.07.08-.07.08a.61.61,0,0,0,.16.12ZM167.54,41l-.06.19s0,.06.05.1.13-.07.13-.08a1.63,1.63,0,0,0-.11-.23ZM131.18,29.07l0-.1-.19.08a.32.32,0,0,0,0,.09Zm-1-.61-.09.07h.17ZM98.64,13.64l-.08,0,0,.06Zm67,120.55.08,0,0-.09Zm-3.15-99.38h.08l-.06-.06Zm.6.72h.09l-.07-.06ZM91.65,13.64h.09l-.07-.05Zm-.77,0H91l-.06-.05Zm72.88,22.52h-.08l.06.05Zm.58.7h-.08l.06,0Zm.53.69h-.09l.07.06Zm1.24,1.71.12.09,0-.08Zm4.78,5.42,0-.09,0,.12Z"/></g></g><text class="cls-1" transform="translate(27.99 121.85)">SM</text><text class="cls-1" transform="translate(196.66 122.01)">Shahzar Mazhar</text></g></g></svg>